# xmcd
#
# Track frame offsets: 
#        150
#        16181
#        29269
#        44744
#        63096
#        83261
#        100859
#        116970
#        136478
#        154242
#        166905
#
# Disc length: 2470 seconds
#
# Revision: 0
# Processed by: cddbd v1.5.2PL0 Copyright (c) Steve Scherf et al.
# Submitted via: ExactAudioCopy v0.99pb5
#
DISCID=8509a40b
DTITLE=LoriAnn - Also Known As Love
DYEAR=2006
DGENRE=Country
TTITLE0=If I Only Had A Heart
TTITLE1=Your A Liar
TTITLE2=Early Going
TTITLE3=Your So Much More
TTITLE4=Small Town Girl
TTITLE5=I'm Not Seventeen
TTITLE6=We're in This Love Together
TTITLE7=Have You Been Missing Us
TTITLE8=Also Known As Love
TTITLE9=Someone to Love
TTITLE10=This Town
EXTD=
EXTT0=
EXTT1=
EXTT2=
EXTT3=
EXTT4=
EXTT5=
EXTT6=
EXTT7=
EXTT8=
EXTT9=
EXTT10=
PLAYORDER=
